<?xml version="1.0" encoding="UTF-8"?>
<svg id="Layer_1" data-name="Layer 1" xmlns="http://www.w3.org/2000/svg" viewBox="0 0 32 32">
  <defs>
    <style>
      .cls-1 {
        fill: #31261d;
        stroke-width: 0px;
      }
    </style>
  </defs>
  <path class="cls-1" d="M26.6834,12.0905c-.2522-1.5544-1.0949-2.9172-2.3727-3.8371-.8587-.6185-1.8506-.9623-2.8756-1.0613-.8719-2.4644-2.8803-4.4113-5.4106-5.1592-.5308-.1594-1.0861.1457-1.2435.6765-.1564.5299.1457,1.0871.6765,1.2435,1.7408.5145,3.1224,1.797,3.8614,3.4238-1.2989.3527-2.4386,1.1067-3.2367,2.214-.9199,1.2768-1.2875,2.837-1.0353,4.3904.6188,3.8117-1.0744,7.6254-4.2155,9.4897-1.2122.7195-2.487,1.1761-3.7902,1.3569-1.0509.1447-1.8232.9639-1.922,2.0364-.0987,1.0685.5074,2.009,1.5094,2.3433,1.574.524,3.1939.7831,4.8177.7831,2.8175,0,5.6486-.7811,8.2725-2.3179,5.1862-3.0384,7.9851-9.301,6.9645-15.5821ZM18.7061,25.9443c-3.6318,2.1283-7.6997,2.6122-11.4449,1.3628-.042-.0137-.1672-.0547-.1486-.2581.0137-.1418.0811-.2209.2033-.2385,1.5681-.217,3.0951-.7616,4.5381-1.6179,3.842-2.2808,5.9194-6.9146,5.1696-11.5319-.1672-1.0265.0753-2.0559.6833-2.8996.6071-.8437,1.5075-1.3999,2.533-1.5661.2121-.0342.4233-.0518.6335-.0518.8095,0,1.5974.2522,2.2671.7352.8437.6071,1.3999,1.5075,1.5661,2.533.8896,5.4717-1.5221,10.9101-6.0006,13.5331Z"/>
</svg>