<?xml version="1.0" encoding="UTF-8"?>
<svg id="Layer_1" data-name="Layer 1" xmlns="http://www.w3.org/2000/svg" viewBox="0 0 32 32">
  <defs>
    <style>
      .cls-1 {
        fill: #31261d;
        stroke-width: 0px;
      }
    </style>
  </defs>
  <path class="cls-1" d="M29.2832,15.1729c.6787-.6611.9189-1.6318.625-2.5332-.293-.9023-1.0576-1.5459-1.9951-1.6816l-6.4551-.9385c-.1543-.0225-.2861-.1191-.3555-.2578l-2.8857-5.8496c-.4199-.8496-1.2686-1.3779-2.2168-1.3779s-1.7969.5283-2.2158,1.3779l-2.8867,5.8486c-.0693.1396-.2012.2363-.3555.2588l-6.4551.9385c-.9375.1357-1.7021.7793-1.9951,1.6816-.2939.9014-.0537,1.8721.625,2.5332l4.6699,4.5518c.1123.1094.1631.2656.1367.4189l-1.1025,6.4287c-.1602.9346.2168,1.8604.9824,2.418.7666.5566,1.7656.6299,2.6035.1875l5.7734-3.0352h.001c.1367-.0723.2998-.0723.4385,0l5.7734,3.0361c.3643.1914.7598.2861,1.1523.2861.5107,0,1.0176-.1602,1.4512-.4746.7656-.5576,1.1426-1.4834.9824-2.418l-1.1025-6.4297c-.0264-.1523.0244-.3086.1357-.417l4.6709-4.5527Z"/>
</svg>